<svg xmlns="http://www.w3.org/2000/svg">
  <symbol id="menu" viewBox="0 0 24 24">
    <path d="M4 7h16M4 12h16M4 17h16" fill="none" stroke="currentColor" stroke-width="2" stroke-linecap="round" />
  </symbol>
  <symbol id="magnifier" viewBox="0 0 24 24">
    <circle cx="11" cy="11" r="6" fill="none" stroke="currentColor" stroke-width="1.8" />
    <path d="m15.4 15.4 4.1 4.1M8.8 11h4.4M11 8.8v4.4" fill="none" stroke="currentColor" stroke-width="1.8" stroke-linecap="round" />
  </symbol>
  <symbol id="wrench" viewBox="0 0 24 24">
    <path d="M14.8 5.2a5 5 0 0 0 4 6.8l-7.3 7.3a2.8 2.8 0 0 1-4-4L14.8 8a5 5 0 0 0 0-2.8Z" fill="none" stroke="currentColor" stroke-width="1.8" stroke-linecap="round" stroke-linejoin="round" />
    <path d="m7.8 16.2 2 2" fill="none" stroke="currentColor" stroke-width="1.8" stroke-linecap="round" />
  </symbol>
  <symbol id="shield" viewBox="0 0 24 24">
    <path d="M12 3 19 6v5c0 4.4-2.8 8.1-7 10-4.2-1.9-7-5.6-7-10V6z" fill="none" stroke="currentColor" stroke-width="1.8" stroke-linejoin="round" />
    <path d="m9 12 2 2 4-5" fill="none" stroke="currentColor" stroke-width="1.8" stroke-linecap="round" stroke-linejoin="round" />
  </symbol>
  <symbol id="heart" viewBox="0 0 24 24">
    <path d="M12 20s-7-4.4-7-10a4 4 0 0 1 7-2.7A4 4 0 0 1 19 10c0 5.6-7 10-7 10Z" fill="none" stroke="currentColor" stroke-width="1.8" stroke-linejoin="round" />
    <path d="M8 12h2l1-2 2 4 1-2h2" fill="none" stroke="currentColor" stroke-width="1.8" stroke-linecap="round" stroke-linejoin="round" />
  </symbol>
  <symbol id="file-check" viewBox="0 0 24 24">
    <path d="M7 3h7l4 4v14H7zM14 3v5h4" fill="none" stroke="currentColor" stroke-width="1.8" stroke-linecap="round" stroke-linejoin="round" />
    <path d="m9 15 2 2 4-5" fill="none" stroke="currentColor" stroke-width="1.8" stroke-linecap="round" stroke-linejoin="round" />
  </symbol>
  <symbol id="video" viewBox="0 0 24 24">
    <path d="M5 6h10v12H5zM15 10l5-3v10l-5-3zM8.5 9.5v5l4-2.5z" fill="none" stroke="currentColor" stroke-width="1.8" stroke-linecap="round" stroke-linejoin="round" />
  </symbol>
  <symbol id="signal-waves" viewBox="0 0 24 24">
    <path d="M4 18 12 5l8 13zM12 5v13" fill="none" stroke="currentColor" stroke-width="1.8" stroke-linecap="round" stroke-linejoin="round" />
    <path d="M8 18c1.2-2 2.5-3 4-3s2.8 1 4 3M9.8 14.2c.6-.7 1.4-1.1 2.2-1.1s1.6.4 2.2 1.1" fill="none" stroke="currentColor" stroke-width="1.8" stroke-linecap="round" />
  </symbol>
  <symbol id="arrow" viewBox="0 0 24 24">
    <path d="M5 12h14M13 6l6 6-6 6" fill="none" stroke="currentColor" stroke-width="2" stroke-linecap="round" stroke-linejoin="round" />
  </symbol>
</svg>
